<svg width="32" height="26" viewBox="0 0 32 26" fill="none" xmlns="http://www.w3.org/2000/svg">
<path d="M30.1667 1.68082C28.75 2.37499 27.3617 2.65691 25.9167 3.08332C24.3286 1.29124 21.9741 1.19207 19.7117 2.03924C17.4493 2.88641 15.9674 4.95757 16 7.33332V8.74999C11.4029 8.86757 7.30876 6.77374 4.66668 3.08332C4.66668 3.08332 -1.25782 13.6134 10.3333 18.6667C7.68134 20.4332 5.03643 21.6247 1.83334 21.5C6.51968 24.0542 11.6268 24.9326 16.0482 23.6491C21.1198 22.1757 25.2877 18.3748 26.8871 12.6812C27.3642 10.9496 27.6011 9.16062 27.5912 7.36449C27.5883 7.01174 29.7303 3.43749 30.1667 1.6794V1.68082Z" stroke="#158ABB" stroke-width="2.125" stroke-linecap="round" stroke-linejoin="round"/>
</svg>
